<?xml version="1.0" standalone="no"?>
<!DOCTYPE svg PUBLIC "-//W3C//DTD SVG 20010904//EN"
 "http://www.w3.org/TR/2001/REC-SVG-20010904/DTD/svg10.dtd">
<svg version="1.0" xmlns="http://www.w3.org/2000/svg"
 width="296.000000pt" height="296.000000pt" viewBox="0 0 296.000000 296.000000"
 preserveAspectRatio="xMidYMid meet">
<metadata>
Created by potrace 1.14, written by Peter Selinger 2001-2017
</metadata>
<g transform="translate(0.000000,296.000000) scale(0.100000,-0.100000)"
fill="#000000" stroke="none">
<path d="M1365 2576 c-74 -23 -250 -113 -312 -160 -69 -53 -145 -138 -210
-238 -24 -37 -56 -76 -72 -88 -57 -40 -87 -111 -115 -268 -9 -53 -11 -95 -6
-113 7 -25 5 -32 -18 -47 -50 -33 -200 -204 -219 -250 -9 -22 -18 -81 -21
-143 -7 -163 13 -230 128 -409 87 -136 109 -180 116 -234 9 -66 -3 -113 -41
-155 -33 -37 -34 -39 -17 -55 17 -15 25 -15 111 4 96 20 147 45 178 84 10 12
34 28 53 34 19 7 52 24 73 38 34 22 40 24 50 10 21 -27 87 -48 141 -45 41 3
60 -2 99 -25 100 -59 190 -70 285 -35 42 16 76 21 129 20 64 -2 75 0 96 21
l23 23 39 -23 c31 -17 54 -22 98 -20 51 1 62 -2 100 -31 55 -42 128 -76 201
-95 59 -16 59 -16 82 9 24 26 23 49 -2 59 -8 3 -14 11 -14 17 0 7 -7 17 -16
23 -14 11 -14 18 0 78 21 92 53 159 137 290 108 166 124 211 124 333 0 85 -3
106 -23 140 -34 59 -94 141 -144 194 -94 99 -90 93 -73 135 19 44 15 102 -16
235 -19 83 -36 115 -96 178 -15 16 -48 67 -73 114 -33 62 -69 108 -135 175
-82 83 -101 97 -205 147 -63 31 -143 63 -176 71 -73 19 -203 20 -259 2z m285
-791 c124 -14 315 -54 364 -76 27 -13 56 -63 53 -93 -2 -13 9 -23 40 -34 49
-19 52 -28 47 -164 -5 -142 -44 -216 -150 -286 -17 -11 -17 -12 3 -2 31 14 37
12 22 -7 -21 -25 -73 -43 -124 -43 -49 0 -50 -1 -35 -31 9 -15 22 -19 70 -19
33 0 60 -2 60 -5 0 -15 -58 -119 -108 -195 -127 -191 -301 -320 -433 -320
-146 0 -378 216 -489 455 -15 33 -30 73 -34 88 -6 25 -4 27 11 19 17 -9 78
-16 116 -13 10 0 17 9 17 21 0 16 -7 20 -37 20 -41 0 -85 19 -86 35 -1 6 -20
22 -44 37 -55 35 -97 102 -112 178 -10 50 -9 64 3 87 l15 28 1 -35 c0 -49 10
-81 23 -73 5 3 16 -2 22 -11 12 -15 15 -14 35 13 17 25 25 29 39 21 15 -8 17
-6 13 15 -6 32 31 95 72 123 17 12 54 24 81 27 l50 6 -38 -15 c-52 -19 -75
-42 -87 -87 -13 -47 4 -95 45 -127 36 -29 106 -30 145 -2 56 40 65 126 18 178
l-23 26 31 -22 c18 -12 42 -44 55 -74 l24 -53 3 55 c5 77 -16 113 -87 148 -46
22 -72 28 -147 30 -126 5 -196 -10 -230 -51 l-27 -32 7 33 c7 29 5 32 -16 33
-23 1 -23 1 2 9 57 16 66 23 90 72 36 73 74 88 293 113 152 17 288 17 437 0z
m-859 -225 c2 -14 5 -22 13 -42 4 -9 6 -25 3 -35 -3 -12 -5 -10 -6 8 0 15 -8
32 -16 39 -17 14 -20 40 -5 40 6 0 11 -4 11 -10z m332 -84 c8 -20 -20 -43 -35
-28 -14 14 -3 42 16 42 7 0 16 -6 19 -14z m81 -153 c-23 -17 -34 -17 -34 0 0
18 43 39 49 24 2 -6 -4 -16 -15 -24z m975 -195 c1 -5 -3 -8 -9 -8 -5 0 -10 12
-9 28 0 24 1 25 9 7 5 -11 9 -23 9 -27z"/>
<path d="M1025 1706 c-52 -16 -95 -45 -95 -63 0 -11 9 -13 48 -6 126 22 262
-5 331 -64 23 -19 41 -30 41 -25 0 6 -17 24 -37 41 l-36 30 23 19 23 19 -20
20 c-14 14 -44 24 -97 32 -95 14 -130 13 -181 -3z"/>
<path d="M1760 1699 c-91 -11 -107 -16 -115 -36 -4 -12 2 -24 19 -38 l25 -20
-39 -23 c-22 -12 -40 -28 -40 -34 0 -6 10 -2 23 9 69 64 220 90 346 61 28 -6
54 -8 58 -5 11 12 -27 44 -75 65 -60 25 -120 31 -202 21z"/>
<path d="M1773 1590 c-57 -12 -120 -46 -138 -74 -12 -17 -15 -43 -13 -92 l3
-69 17 38 c24 52 55 95 80 108 18 10 18 8 -4 -21 -49 -67 -17 -167 61 -191
141 -42 221 156 91 224 l-35 19 38 -5 c20 -3 51 -15 67 -27 39 -28 74 -94 65
-127 -5 -23 -5 -23 19 -8 24 16 25 16 41 -14 22 -43 40 -39 55 13 10 36 10 55
0 96 -16 69 -49 105 -106 119 -63 16 -190 22 -241 11z m15 -133 c4 -21 -25
-34 -40 -19 -8 8 -8 16 2 27 16 19 34 15 38 -8z m102 -127 c0 -14 -48 -35 -58
-26 -8 9 26 36 45 36 7 0 13 -5 13 -10z"/>
<path d="M1383 1520 c-20 -8 -23 -17 -23 -69 0 -32 -9 -88 -20 -122 -10 -35
-17 -65 -15 -67 7 -8 -16 -43 -24 -38 -4 3 -21 -9 -37 -27 l-29 -32 33 29 c17
17 32 25 32 20 0 -14 -63 -74 -78 -74 -7 0 -12 -7 -12 -16 0 -8 -4 -13 -9 -9
-5 3 -16 -1 -24 -9 -8 -8 -17 -12 -21 -9 -3 4 -6 0 -6 -7 0 -9 10 -11 37 -7
42 7 122 80 149 135 10 21 21 32 30 28 8 -3 14 1 14 10 0 9 -5 12 -12 8 -8 -5
-9 -2 -3 12 4 10 11 44 14 74 4 30 13 65 20 78 15 27 8 52 -14 52 -18 0 -20
16 -2 27 6 4 30 10 52 14 l40 6 -35 1 c-19 0 -45 -3 -57 -8z"/>
<path d="M1518 1519 c23 -4 47 -11 52 -14 17 -11 11 -23 -10 -18 -18 5 -18 2
-9 -28 12 -35 23 -83 40 -159 15 -66 38 -109 84 -155 48 -46 65 -59 85 -63 8
-2 17 -7 20 -12 3 -4 20 -11 37 -15 28 -6 32 -4 27 10 -4 9 -13 14 -21 11 -8
-3 -12 -2 -8 3 7 12 -4 41 -16 41 -5 0 -9 -7 -9 -15 0 -14 -3 -14 -27 -1 -16
8 -37 22 -48 31 l-20 17 20 -7 c12 -3 5 7 -18 26 -21 17 -52 59 -69 93 -27 52
-32 75 -36 153 -4 92 -4 92 -35 102 -16 6 -42 11 -56 10 -18 -1 -12 -4 17 -10z"/>
<path d="M1546 1391 c-4 -5 -2 -12 3 -15 5 -4 12 -2 15 3 4 5 2 12 -3 15 -5 4
-12 2 -15 -3z"/>
<path d="M1545 1220 c3 -5 8 -10 11 -10 2 0 4 5 4 10 0 6 -5 10 -11 10 -5 0
-7 -4 -4 -10z"/>
<path d="M1568 1104 c-2 -38 -8 -51 -31 -68 -33 -24 -106 -25 -142 -2 -24 16
-43 75 -30 95 3 6 1 11 -5 11 -18 0 -33 -47 -26 -83 10 -56 60 -87 141 -89 88
-1 149 65 125 138 -17 51 -29 50 -32 -2z"/>
<path d="M1008 1123 c7 -3 16 -2 19 1 4 3 -2 6 -13 5 -11 0 -14 -3 -6 -6z"/>
<path d="M1868 1103 c7 -3 16 -2 19 1 4 3 -2 6 -13 5 -11 0 -14 -3 -6 -6z"/>
<path d="M1345 870 c-28 -11 -66 -35 -84 -54 l-33 -34 94 6 c66 4 96 9 104 20
8 12 21 13 60 7 42 -7 46 -9 24 -16 -17 -5 -5 -7 41 -8 36 -1 80 -6 98 -12 48
-17 51 -1 7 37 -82 71 -210 93 -311 54z"/>
</g>
</svg>
